<svg width="50" height="42" viewBox="0 0 50 42" fill="none" xmlns="http://www.w3.org/2000/svg">
<path d="M34.266 33.2667H34.1558C33.5586 33.2667 33.0569 32.7671 33.0135 32.1294C32.97 31.4607 33.4489 30.8785 34.0813 30.8346C34.1062 30.8329 34.1322 30.832 34.1577 30.832C34.7626 30.832 35.2693 31.3219 35.3142 31.9487C35.3258 32.1971 35.286 32.5514 35.0356 32.8439L35.0298 32.8507L35.0241 32.8575C34.8313 33.0912 34.5697 33.2321 34.266 33.2667ZM20.8032 33.2604C20.1653 33.2604 19.6465 32.7174 19.6465 32.05C19.6465 31.3832 20.1653 30.8406 20.8032 30.8406C21.441 30.8406 21.9598 31.3832 21.9598 32.05C21.9598 32.7174 21.441 33.2604 20.8032 33.2604Z" fill="white"/>
<path d="M33.876 32.2662C33.921 32.2549 33.9423 32.2339 33.96 32.2129C33.9678 32.2037 33.9756 32.1946 33.9835 32.1855C34.02 32.1438 34.0233 32.0553 34.0224 32.0105C34.0092 31.9044 33.9185 31.8315 33.8412 31.8315C33.8375 31.8315 33.8336 31.8317 33.8312 31.8318C33.7531 31.8372 33.6653 31.9409 33.6719 32.0625C33.6813 32.1793 33.7675 32.2662 33.8392 32.2662H33.876ZM20.2195 32.2599C20.3187 32.2599 20.3994 32.1655 20.3994 32.0496C20.3994 31.9341 20.3187 31.8401 20.2195 31.8401C20.1204 31.8401 20.0397 31.9341 20.0397 32.0496C20.0397 32.1655 20.1204 32.2599 20.2195 32.2599ZM33.9995 34.2662C33.9517 34.2662 33.8878 34.2662 33.8392 34.2662C32.7017 34.2662 31.7567 33.3545 31.6765 32.198C31.5964 30.9929 32.4937 29.9183 33.6953 29.8364C33.7441 29.8331 33.7928 29.8315 33.8412 29.8315C34.9799 29.8315 35.9413 30.7324 36.019 31.8884C36.0505 32.4915 35.8741 33.0612 35.4898 33.5012C35.1055 33.9575 34.5764 34.2177 33.9995 34.2662ZM20.2195 34.2599C19.0153 34.2599 18.0397 33.2709 18.0397 32.0496C18.0397 30.8291 19.0153 29.8401 20.2195 29.8401C21.4237 29.8401 22.3994 30.8291 22.3994 32.0496C22.3994 33.2709 21.4237 34.2599 20.2195 34.2599ZM33.1984 27.3938H21.1331C20.7001 27.3938 20.3159 27.1005 20.2033 26.6775L16.2775 12.2477H13.5217C12.9934 12.2477 12.5605 11.8086 12.5605 11.2704C12.5605 10.733 12.9934 10.293 13.5217 10.293H16.9993C17.4313 10.293 17.8156 10.5863 17.9281 11.0103L21.8539 25.4391H32.5576L36.1144 17.1338H24.2578C23.7286 17.1338 23.2957 16.6937 23.2957 16.1565C23.2957 15.6191 23.7286 15.1791 24.2578 15.1791H37.5886C37.9091 15.1791 38.2141 15.3419 38.3896 15.6191C38.566 15.8954 38.5984 16.2374 38.4697 16.547L34.0795 26.807C33.9193 27.1653 33.5827 27.3938 33.1984 27.3938Z" fill="white"/>
</svg>
